<mxfile host="65bd71144e">
    <diagram name="Page-1" id="gfVjld5SYD9K90GSMS5p">
        <mxGraphModel dx="921" dy="1909" grid="1" gridSize="10" guides="1" tooltips="1" connect="1" arrows="1" fold="1" page="1" pageScale="1" pageWidth="827" pageHeight="1169" math="0" shadow="0">
            <root>
                <mxCell id="0"/>
                <mxCell id="1" parent="0"/>
                <mxCell id="J5q2wIvUIW0NHQkZI1R1-1" value="membre" style="swimlane;whiteSpace=wrap;html=1;" parent="1" vertex="1">
                    <mxGeometry x="340" width="200" height="200" as="geometry"/>
                </mxCell>
                <mxCell id="J5q2wIvUIW0NHQkZI1R1-2" value="&lt;div style=&quot;text-align: left;&quot;&gt;&lt;span style=&quot;background-color: initial;&quot;&gt;Cotisation annuelle &lt;span style=&quot;&quot;&gt;&#9;&lt;/span&gt;:&lt;/span&gt;&lt;/div&gt;&lt;div style=&quot;text-align: left;&quot;&gt;&lt;span style=&quot;background-color: initial;&quot;&gt;Adhérant&lt;span style=&quot;&quot;&gt;&#9;&lt;/span&gt;&lt;span style=&quot;&quot;&gt;&#9;&lt;/span&gt;&lt;span style=&quot;&quot;&gt;&#9;&lt;span style=&quot;&quot;&gt;&#9;&lt;/span&gt;&lt;/span&gt;:&lt;/span&gt;&lt;/div&gt;&lt;div style=&quot;text-align: left;&quot;&gt;&lt;span style=&quot;background-color: initial;&quot;&gt;Date d'anniversaire &lt;span style=&quot;&quot;&gt;&#9;&lt;/span&gt;:&lt;/span&gt;&lt;/div&gt;&lt;div style=&quot;text-align: left;&quot;&gt;&lt;span style=&quot;background-color: initial;&quot;&gt;Instructeur&amp;nbsp;&lt;span style=&quot;&quot;&gt;&#9;&lt;/span&gt;&lt;span style=&quot;&quot;&gt;&#9;&lt;span style=&quot;&quot;&gt;&#9;&lt;/span&gt;&lt;/span&gt;:&lt;/span&gt;&lt;/div&gt;&lt;div style=&quot;text-align: left;&quot;&gt;&lt;div&gt;Nombre d'heure de vol en solo :&lt;/div&gt;&lt;div&gt;&lt;span style=&quot;background-color: initial;&quot;&gt;&lt;br&gt;&lt;/span&gt;&lt;/div&gt;&lt;/div&gt;" style="text;html=1;align=center;verticalAlign=middle;resizable=0;points=[];autosize=1;strokeColor=none;fillColor=none;" parent="J5q2wIvUIW0NHQkZI1R1-1" vertex="1">
                    <mxGeometry y="20" width="190" height="100" as="geometry"/>
                </mxCell>
                <mxCell id="J5q2wIvUIW0NHQkZI1R1-3" value="élève" style="swimlane;whiteSpace=wrap;html=1;" parent="1" vertex="1">
                    <mxGeometry x="50" y="220" width="260" height="200" as="geometry"/>
                </mxCell>
                <mxCell id="J5q2wIvUIW0NHQkZI1R1-4" value="Volet théorique &lt;span style=&quot;white-space: pre;&quot;&gt;&#9;&lt;/span&gt;&lt;span style=&quot;white-space: pre;&quot;&gt;&#9;&lt;span style=&quot;white-space: pre;&quot;&gt;&#9;&lt;/span&gt;&lt;/span&gt;:&lt;br&gt;&lt;div style=&quot;&quot;&gt;&lt;span style=&quot;background-color: initial;&quot;&gt;Volet pratique&amp;nbsp; &amp;nbsp;&lt;span style=&quot;white-space: pre;&quot;&gt;&#9;&lt;/span&gt;&lt;span style=&quot;white-space: pre;&quot;&gt;&#9;&lt;/span&gt;&lt;span style=&quot;white-space: pre;&quot;&gt;&#9;&lt;/span&gt;:&lt;/span&gt;&lt;/div&gt;&lt;div style=&quot;&quot;&gt;&lt;span style=&quot;background-color: initial;&quot;&gt;Certificat d'aptitude physique &lt;span style=&quot;white-space: pre;&quot;&gt;&#9;&lt;/span&gt;:&amp;nbsp;&lt;/span&gt;&lt;/div&gt;Certificat d'aptitude mentale&amp;nbsp; &amp;nbsp;:&lt;div style=&quot;&quot;&gt;&lt;span style=&quot;background-color: initial;&quot;&gt;Nombre d'heure vol avec instructeur :&amp;nbsp;&lt;/span&gt;&lt;/div&gt;&lt;div style=&quot;&quot;&gt;&lt;span style=&quot;background-color: initial;&quot;&gt;Nombre atterrissage&amp;nbsp;:&amp;nbsp;&lt;/span&gt;&lt;br&gt;&lt;/div&gt;" style="text;html=1;align=left;verticalAlign=middle;resizable=0;points=[];autosize=1;strokeColor=none;fillColor=none;" parent="J5q2wIvUIW0NHQkZI1R1-3" vertex="1">
                    <mxGeometry x="5" y="30" width="230" height="100" as="geometry"/>
                </mxCell>
                <mxCell id="J5q2wIvUIW0NHQkZI1R1-6" value="" style="endArrow=block;html=1;rounded=0;exitX=0.5;exitY=0;exitDx=0;exitDy=0;entryX=0;entryY=0.75;entryDx=0;entryDy=0;endFill=0;endSize=12;" parent="1" source="J5q2wIvUIW0NHQkZI1R1-3" target="J5q2wIvUIW0NHQkZI1R1-1" edge="1">
                    <mxGeometry width="50" height="50" relative="1" as="geometry">
                        <mxPoint x="390" y="240" as="sourcePoint"/>
                        <mxPoint x="440" y="190" as="targetPoint"/>
                    </mxGeometry>
                </mxCell>
                <mxCell id="J5q2wIvUIW0NHQkZI1R1-9" value="Parc avion&amp;nbsp;" style="swimlane;whiteSpace=wrap;html=1;" parent="1" vertex="1">
                    <mxGeometry x="670" y="330" width="200" height="200" as="geometry"/>
                </mxCell>
                <mxCell id="J5q2wIvUIW0NHQkZI1R1-10" value="Nombre avions" style="text;html=1;align=left;verticalAlign=middle;resizable=0;points=[];autosize=1;strokeColor=none;fillColor=none;" parent="J5q2wIvUIW0NHQkZI1R1-9" vertex="1">
                    <mxGeometry y="30" width="100" height="30" as="geometry"/>
                </mxCell>
                <mxCell id="J5q2wIvUIW0NHQkZI1R1-11" value="Avion&amp;nbsp;" style="swimlane;whiteSpace=wrap;html=1;" parent="1" vertex="1">
                    <mxGeometry x="490" y="690" width="260" height="130" as="geometry"/>
                </mxCell>
                <mxCell id="J5q2wIvUIW0NHQkZI1R1-12" value="&lt;div style=&quot;&quot;&gt;&lt;span style=&quot;background-color: initial;&quot;&gt;Type :&lt;/span&gt;&lt;/div&gt;&lt;div style=&quot;&quot;&gt;&lt;span style=&quot;background-color: initial;&quot;&gt;Statut :&lt;/span&gt;&lt;/div&gt;&lt;div style=&quot;&quot;&gt;&lt;span style=&quot;background-color: initial;&quot;&gt;Tableau de rapport de maintenance :&lt;/span&gt;&lt;/div&gt;" style="text;html=1;align=left;verticalAlign=middle;resizable=0;points=[];autosize=1;strokeColor=none;fillColor=none;" parent="J5q2wIvUIW0NHQkZI1R1-11" vertex="1">
                    <mxGeometry x="15" y="35" width="220" height="60" as="geometry"/>
                </mxCell>
                <mxCell id="J5q2wIvUIW0NHQkZI1R1-14" value="&lt;div&gt;carnet&amp;nbsp;&lt;span style=&quot;background-color: initial;&quot;&gt;d’entretien&lt;/span&gt;&lt;/div&gt;" style="swimlane;whiteSpace=wrap;html=1;" parent="1" vertex="1">
                    <mxGeometry x="525" y="880" width="200" height="200" as="geometry"/>
                </mxCell>
                <mxCell id="J5q2wIvUIW0NHQkZI1R1-15" value="Type d'avion&lt;br&gt;Mécanicien&amp;nbsp;&lt;br&gt;date&lt;br&gt;motif&lt;br&gt;compte rendu&lt;br&gt;conclusion" style="text;html=1;align=left;verticalAlign=middle;resizable=0;points=[];autosize=1;strokeColor=none;fillColor=none;" parent="J5q2wIvUIW0NHQkZI1R1-14" vertex="1">
                    <mxGeometry y="20" width="100" height="100" as="geometry"/>
                </mxCell>
                <mxCell id="J5q2wIvUIW0NHQkZI1R1-16" value="Location" style="swimlane;whiteSpace=wrap;html=1;" parent="1" vertex="1">
                    <mxGeometry x="180" y="640" width="200" height="100" as="geometry"/>
                </mxCell>
                <mxCell id="J5q2wIvUIW0NHQkZI1R1-17" value="&lt;div style=&quot;text-align: left;&quot;&gt;&lt;span style=&quot;background-color: initial;&quot;&gt;anomalies&amp;nbsp;&lt;/span&gt;&lt;/div&gt;&lt;div style=&quot;text-align: left;&quot;&gt;&lt;span style=&quot;background-color: initial;&quot;&gt;Horamètre&lt;/span&gt;&lt;/div&gt;&lt;div style=&quot;text-align: left;&quot;&gt;&lt;span style=&quot;background-color: initial;&quot;&gt;prix&lt;/span&gt;&lt;/div&gt;" style="text;html=1;align=center;verticalAlign=middle;resizable=0;points=[];autosize=1;strokeColor=none;fillColor=none;" parent="J5q2wIvUIW0NHQkZI1R1-16" vertex="1">
                    <mxGeometry y="20" width="80" height="60" as="geometry"/>
                </mxCell>
                <mxCell id="J5q2wIvUIW0NHQkZI1R1-18" value="Utilisateur logiciel" style="swimlane;whiteSpace=wrap;html=1;" parent="1" vertex="1">
                    <mxGeometry x="515" y="-330" width="200" height="200" as="geometry"/>
                </mxCell>
                <mxCell id="J5q2wIvUIW0NHQkZI1R1-19" value="Compte&amp;nbsp;" style="text;html=1;align=center;verticalAlign=middle;resizable=0;points=[];autosize=1;strokeColor=none;fillColor=none;" parent="J5q2wIvUIW0NHQkZI1R1-18" vertex="1">
                    <mxGeometry x="50" y="45" width="70" height="30" as="geometry"/>
                </mxCell>
                <mxCell id="J5q2wIvUIW0NHQkZI1R1-21" value="Mécanicien" style="swimlane;whiteSpace=wrap;html=1;" parent="1" vertex="1">
                    <mxGeometry x="820" y="980" width="160" height="50" as="geometry"/>
                </mxCell>
                <mxCell id="12" value="Rapport de maintenance" style="swimlane;whiteSpace=wrap;html=1;" vertex="1" parent="1">
                    <mxGeometry x="515" y="1210" width="200" height="200" as="geometry"/>
                </mxCell>
                <mxCell id="13" value="Appareil&lt;br&gt;Date&lt;br&gt;&lt;div style=&quot;&quot;&gt;&lt;span style=&quot;background-color: initial;&quot;&gt;Motif&lt;/span&gt;&lt;/div&gt;&lt;div style=&quot;&quot;&gt;&lt;span style=&quot;background-color: initial;&quot;&gt;Mécanicien&lt;/span&gt;&lt;br&gt;&lt;/div&gt;&lt;div style=&quot;&quot;&gt;&lt;span style=&quot;background-color: initial;&quot;&gt;Compte rendu&lt;/span&gt;&lt;/div&gt;&lt;div style=&quot;&quot;&gt;&lt;span style=&quot;background-color: initial;&quot;&gt;Conclusion&lt;/span&gt;&lt;/div&gt;" style="text;html=1;align=left;verticalAlign=middle;resizable=0;points=[];autosize=1;strokeColor=none;fillColor=none;" vertex="1" parent="12">
                    <mxGeometry x="10" y="30" width="100" height="100" as="geometry"/>
                </mxCell>
                <mxCell id="14" value="Secrétaire" style="swimlane;whiteSpace=wrap;html=1;" vertex="1" parent="1">
                    <mxGeometry x="680" y="90" width="160" height="50" as="geometry"/>
                </mxCell>
                <mxCell id="16" value="Instructeur" style="swimlane;whiteSpace=wrap;html=1;" vertex="1" parent="1">
                    <mxGeometry x="355" y="350" width="160" height="50" as="geometry"/>
                </mxCell>
                <mxCell id="18" value="Leçon pratique" style="swimlane;whiteSpace=wrap;html=1;" vertex="1" parent="1">
                    <mxGeometry x="100" y="485" width="240" height="100" as="geometry"/>
                </mxCell>
                <mxCell id="19" value="&lt;div style=&quot;&quot;&gt;&lt;span style=&quot;background-color: initial;&quot;&gt;Type :&lt;/span&gt;&lt;/div&gt;&lt;div style=&quot;&quot;&gt;&lt;span style=&quot;background-color: initial;&quot;&gt;Statut :&lt;/span&gt;&lt;/div&gt;&lt;div style=&quot;&quot;&gt;&lt;span style=&quot;background-color: initial;&quot;&gt;Tableau de rapport de maintenance :&lt;/span&gt;&lt;/div&gt;" style="text;html=1;align=left;verticalAlign=middle;resizable=0;points=[];autosize=1;strokeColor=none;fillColor=none;" vertex="1" parent="18">
                    <mxGeometry x="10" y="35" width="220" height="60" as="geometry"/>
                </mxCell>
                <mxCell id="26" value="Use" style="endArrow=open;endSize=12;dashed=1;html=1;strokeWidth=1;targetPerimeterSpacing=0;exitX=0.5;exitY=1;exitDx=0;exitDy=0;entryX=0.5;entryY=0;entryDx=0;entryDy=0;" edge="1" parent="1" source="J5q2wIvUIW0NHQkZI1R1-14" target="12">
                    <mxGeometry width="160" relative="1" as="geometry">
                        <mxPoint x="315" y="1260" as="sourcePoint"/>
                        <mxPoint x="475" y="1260" as="targetPoint"/>
                    </mxGeometry>
                </mxCell>
                <mxCell id="28" value="Use" style="endArrow=open;endSize=12;dashed=1;html=1;strokeWidth=1;targetPerimeterSpacing=0;entryX=0;entryY=0.5;entryDx=0;entryDy=0;exitX=1;exitY=0.5;exitDx=0;exitDy=0;" edge="1" parent="1" source="J5q2wIvUIW0NHQkZI1R1-16" target="J5q2wIvUIW0NHQkZI1R1-11">
                    <mxGeometry width="160" relative="1" as="geometry">
                        <mxPoint x="330" y="550" as="sourcePoint"/>
                        <mxPoint x="450" y="770" as="targetPoint"/>
                    </mxGeometry>
                </mxCell>
                <mxCell id="31" value="Use" style="endArrow=open;endSize=12;dashed=1;html=1;strokeWidth=1;targetPerimeterSpacing=0;exitX=0.5;exitY=1;exitDx=0;exitDy=0;entryX=0.5;entryY=0;entryDx=0;entryDy=0;" edge="1" parent="1" source="18" target="J5q2wIvUIW0NHQkZI1R1-16">
                    <mxGeometry width="160" relative="1" as="geometry">
                        <mxPoint x="330" y="550" as="sourcePoint"/>
                        <mxPoint x="490" y="550" as="targetPoint"/>
                    </mxGeometry>
                </mxCell>
                <mxCell id="32" value="Use" style="endArrow=open;endSize=12;dashed=1;html=1;strokeWidth=1;targetPerimeterSpacing=0;exitX=0.5;exitY=1;exitDx=0;exitDy=0;entryX=0.5;entryY=0;entryDx=0;entryDy=0;" edge="1" parent="1" source="J5q2wIvUIW0NHQkZI1R1-3" target="18">
                    <mxGeometry width="160" relative="1" as="geometry">
                        <mxPoint x="330" y="550" as="sourcePoint"/>
                        <mxPoint x="490" y="550" as="targetPoint"/>
                    </mxGeometry>
                </mxCell>
                <mxCell id="33" value="Use" style="endArrow=open;endSize=12;dashed=1;html=1;strokeWidth=1;targetPerimeterSpacing=0;exitX=0.5;exitY=1;exitDx=0;exitDy=0;entryX=0.5;entryY=0;entryDx=0;entryDy=0;" edge="1" parent="1" source="J5q2wIvUIW0NHQkZI1R1-9" target="J5q2wIvUIW0NHQkZI1R1-11">
                    <mxGeometry width="160" relative="1" as="geometry">
                        <mxPoint x="540" y="520" as="sourcePoint"/>
                        <mxPoint x="700" y="520" as="targetPoint"/>
                    </mxGeometry>
                </mxCell>
                <mxCell id="35" value="Use" style="endArrow=open;endSize=12;dashed=1;html=1;strokeWidth=1;targetPerimeterSpacing=0;exitX=0.5;exitY=1;exitDx=0;exitDy=0;entryX=0.5;entryY=0;entryDx=0;entryDy=0;" edge="1" parent="1" source="J5q2wIvUIW0NHQkZI1R1-11" target="J5q2wIvUIW0NHQkZI1R1-14">
                    <mxGeometry width="160" relative="1" as="geometry">
                        <mxPoint x="520" y="1030" as="sourcePoint"/>
                        <mxPoint x="680" y="1030" as="targetPoint"/>
                    </mxGeometry>
                </mxCell>
                <mxCell id="38" value="Use" style="endArrow=open;endSize=12;dashed=1;html=1;entryX=0.5;entryY=1;entryDx=0;entryDy=0;exitX=1;exitY=0.5;exitDx=0;exitDy=0;" edge="1" parent="1" source="12" target="J5q2wIvUIW0NHQkZI1R1-21">
                    <mxGeometry width="160" relative="1" as="geometry">
                        <mxPoint x="690" y="1160" as="sourcePoint"/>
                        <mxPoint x="850" y="1160" as="targetPoint"/>
                    </mxGeometry>
                </mxCell>
                <mxCell id="40" value="" style="endArrow=block;dashed=1;endFill=0;endSize=12;html=1;strokeWidth=1;targetPerimeterSpacing=0;exitX=0.5;exitY=0;exitDx=0;exitDy=0;entryX=0.5;entryY=1;entryDx=0;entryDy=0;" edge="1" parent="1" source="J5q2wIvUIW0NHQkZI1R1-1" target="J5q2wIvUIW0NHQkZI1R1-18">
                    <mxGeometry width="160" relative="1" as="geometry">
                        <mxPoint x="450" y="-60" as="sourcePoint"/>
                        <mxPoint x="610" y="-120" as="targetPoint"/>
                    </mxGeometry>
                </mxCell>
                <mxCell id="41" value="" style="endArrow=block;dashed=1;endFill=0;endSize=12;html=1;strokeWidth=1;targetPerimeterSpacing=0;exitX=0.5;exitY=0;exitDx=0;exitDy=0;entryX=0.75;entryY=1;entryDx=0;entryDy=0;" edge="1" parent="1" source="14" target="J5q2wIvUIW0NHQkZI1R1-18">
                    <mxGeometry width="160" relative="1" as="geometry">
                        <mxPoint x="710" y="20" as="sourcePoint"/>
                        <mxPoint x="760" y="-60" as="targetPoint"/>
                    </mxGeometry>
                </mxCell>
                <mxCell id="43" value="" style="endArrow=block;dashed=1;endFill=0;endSize=12;html=1;strokeWidth=1;targetPerimeterSpacing=0;exitX=0.5;exitY=0;exitDx=0;exitDy=0;entryX=1;entryY=1;entryDx=0;entryDy=0;" edge="1" parent="1" source="J5q2wIvUIW0NHQkZI1R1-21" target="J5q2wIvUIW0NHQkZI1R1-18">
                    <mxGeometry width="160" relative="1" as="geometry">
                        <mxPoint x="890" y="920" as="sourcePoint"/>
                        <mxPoint x="640" y="-120" as="targetPoint"/>
                    </mxGeometry>
                </mxCell>
            </root>
        </mxGraphModel>
    </diagram>
</mxfile>